<svg version="1.1" id="Layer_1" xmlns="http://www.w3.org/2000/svg" xmlns:xlink="http://www.w3.org/1999/xlink" x="0px" y="0px"
	 width="100%" viewBox="0 0 352 352" enable-background="new 0 0 352 352" xml:space="preserve">
<path fill="#000000" opacity="1.000000" stroke="none" 
	d="
M353.000000,208.000000 
	C353.000000,256.317780 353.000000,304.635590 353.000000,352.976685 
	C235.719971,352.976685 118.439919,352.976685 1.079939,352.976685 
	C1.079939,235.757751 1.079939,118.515434 1.079939,1.136556 
	C118.333237,1.136556 235.666595,1.136556 353.000000,1.136556 
	C353.000000,53.429890 353.000000,105.746284 352.650482,158.392609 
	C340.731812,156.447739 329.143799,154.262451 317.606354,151.836929 
	C314.620209,151.209152 312.098480,151.554474 309.510925,153.064178 
	C301.894714,157.507843 294.279327,161.960480 286.535614,166.174469 
	C283.362244,167.901367 282.049347,170.036835 282.241333,173.723282 
	C283.022827,188.728653 280.451355,203.227707 274.654236,217.079224 
	C273.195312,220.565109 273.868652,222.486053 277.097351,224.338745 
	C295.136353,234.690063 313.126160,245.128922 331.038483,255.697678 
	C334.394135,257.677612 336.035248,256.864471 337.521423,253.588593 
	C341.510315,244.796219 344.962067,235.827087 347.845367,226.600189 
	C349.768555,220.445786 350.053467,213.853088 353.000000,208.000000 
M37.420708,249.656479 
	C46.558842,249.280609 55.695164,248.849213 64.835838,248.551437 
	C69.667931,248.394028 73.172623,246.665985 75.864700,242.291107 
	C80.392509,234.932999 85.495270,227.921753 90.510445,220.874390 
	C92.138931,218.586029 92.404480,216.461960 91.415390,213.898239 
	C86.622658,201.475449 84.693962,188.541351 85.105408,175.288071 
	C85.242943,170.857971 83.366257,169.067047 79.217194,168.358932 
	C59.570198,165.005829 39.927540,161.613876 20.341805,157.925308 
	C15.822142,157.074142 14.429252,158.387070 13.983982,162.714767 
	C11.172057,190.044708 14.894545,216.414230 25.014711,241.933548 
	C28.096037,249.703506 27.987309,249.746628 37.420708,249.656479 
M223.922775,345.412476 
	C226.005081,344.822479 228.061020,344.104004 230.175430,343.670593 
	C233.972549,342.892273 234.442535,340.795746 233.218613,337.465973 
	C226.268936,318.558624 219.332520,299.645416 212.584351,280.665680 
	C210.914169,275.968170 208.341629,274.662567 203.482239,275.778839 
	C190.326767,278.800812 177.055740,278.817963 163.895126,275.737030 
	C159.164551,274.629547 156.546585,275.672302 154.833862,280.562256 
	C148.341751,299.097687 141.467972,317.499176 134.782150,335.967133 
	C132.587082,342.030518 132.813141,342.465698 139.127243,344.196899 
	C167.000107,351.839172 195.007996,351.937012 223.922775,345.412476 
M237.981857,261.556427 
	C235.120193,263.251404 232.392303,265.255707 229.363953,266.565186 
	C225.333359,268.308075 225.053299,270.711731 226.452713,274.501587 
	C233.422348,293.376770 240.324249,312.279877 246.927933,331.285095 
	C248.561890,335.987518 250.471329,336.668243 254.862122,334.617493 
	C276.425415,324.546204 295.211761,310.780334 311.045807,293.037048 
	C316.998840,286.366241 322.456390,279.288544 327.171417,271.532684 
	C326.321838,270.744598 325.917175,270.205322 325.380249,269.894928 
	C306.511139,258.987030 287.608765,248.136383 268.770508,237.175522 
	C265.675537,235.374756 263.953918,236.636108 262.124786,239.039932 
	C255.520020,247.719742 247.644196,255.076416 237.981857,261.556427 
M245.717636,93.182632 
	C258.461639,78.028175 271.143860,62.821014 283.999664,47.762009 
	C286.694397,44.605450 286.590210,42.634495 283.140015,40.209000 
	C257.386017,22.103903 229.017715,11.327956 197.503006,9.063210 
	C192.902695,8.732617 191.268555,10.454185 191.300629,15.015704 
	C191.441040,34.985844 191.477112,54.958771 191.270096,74.927773 
	C191.222031,79.564629 193.408188,81.115746 197.398056,81.585609 
	C211.184250,83.209122 223.944977,87.912315 235.549744,95.367142 
	C239.889450,98.154945 242.657837,97.980232 245.717636,93.182632 
M18.501278,135.799652 
	C17.164440,140.191849 18.394850,142.337036 23.333990,143.150497 
	C43.002430,146.389832 62.608418,150.010406 82.227982,153.542831 
	C86.356239,154.286118 88.628815,152.961487 89.954224,148.729630 
	C94.133728,135.384949 100.833939,123.330956 110.420448,113.117706 
	C113.887901,109.423553 113.326767,106.968231 110.334885,103.456047 
	C98.034721,89.016846 85.972481,74.375000 73.820679,59.809391 
	C68.282455,53.171066 68.078323,53.158314 62.089058,59.236763 
	C60.921570,60.421638 59.800938,61.653191 58.672516,62.875973 
	C39.474907,83.678925 26.156275,107.736671 18.501278,135.799652 
M122.834709,94.562378 
	C124.508148,96.585175 125.786385,99.086655 129.229309,96.848640 
	C141.971451,88.565819 155.845154,83.242760 170.985214,81.323570 
	C173.880646,80.956535 175.858170,79.559242 175.852692,76.124146 
	C175.819244,55.137039 175.869446,34.149773 175.908997,13.162595 
	C175.915375,9.776713 174.448013,8.448997 170.947037,8.739990 
	C140.435516,11.276023 112.423088,20.863411 87.158241,38.243015 
	C80.134148,43.074871 80.073135,43.644077 85.431236,50.043144 
	C97.727684,64.728539 110.069801,79.375702 122.834709,94.562378 
M135.361649,265.217590 
	C121.126114,257.182587 109.697960,246.033356 100.116806,231.695602 
	C93.813828,240.923065 88.210411,248.954742 82.811783,257.121765 
	C80.886292,260.034637 78.640961,261.387543 75.039864,261.429565 
	C66.721947,261.526672 58.404488,261.982941 50.096203,262.457458 
	C45.544025,262.717468 41.010864,263.310516 36.581593,263.742432 
	C36.414326,265.794830 37.279423,266.873138 37.961620,267.984924 
	C56.348984,297.951080 81.509285,320.266785 113.446518,335.002777 
	C117.159714,336.716125 118.714836,335.793274 120.024940,332.095947 
	C126.585991,313.579681 133.358643,295.138428 140.046860,276.667175 
	C142.748749,269.205170 142.737045,269.200928 135.361649,265.217590 
M305.298431,59.234386 
	C299.115326,53.122780 299.073914,53.088207 293.469696,59.801292 
	C280.994141,74.745361 268.625488,89.779274 256.062347,104.649040 
	C253.646149,107.508827 253.575424,109.453659 256.169037,112.259438 
	C266.019714,122.915833 273.301819,135.157440 277.415497,149.121384 
	C278.665955,153.366028 280.567108,153.354385 283.884186,151.386703 
	C291.038177,147.142960 298.384430,143.223602 305.545959,138.992035 
	C309.037933,136.928726 312.408630,136.373657 316.461914,137.294022 
	C325.369110,139.316544 334.372894,140.941086 343.380615,142.473175 
	C345.494263,142.832687 347.811829,144.258087 350.500671,142.181778 
	C343.475433,110.488205 328.379181,83.108131 305.298431,59.234386 
z"/>
</svg>